<?xml version="1.0" encoding="UTF-8" standalone="no"?>
<!-- Created with Inkscape (http://www.inkscape.org/) -->

<svg
   viewBox="0 0 29.098862 69.495857"
   version="1.1"
   id="svg1"
   xml:space="preserve"
   xmlns="http://www.w3.org/2000/svg"
   xmlns:svg="http://www.w3.org/2000/svg"><defs
     id="defs1" /><g
     id="layer1"
     transform="translate(-94.814417,-84.40476)"><path
       id="path1"
       style="fill:#ffffff;fill-opacity:1;stroke:none;stroke-width:0.265999;stroke-linecap:round;stroke-linejoin:round"
       d="m 109.43931,84.406734 c -0.68331,-0.01953 -1.42715,0.106332 -2.20503,0.363802 -0.91593,0.303165 -1.63855,1.002378 -2.26911,1.987476 -0.50868,0.794687 -0.83295,1.696845 -0.86972,2.773991 -0.0331,0.968446 1.29933,0.747024 1.39422,1.085982 0.4103,1.465617 0.82064,2.931014 1.23093,4.396631 3.00273,10.726034 8.35323,20.673154 11.75743,30.974854 0.66854,2.02313 1.13645,3.98937 1.40663,5.99498 0.30381,2.2553 0.21909,4.53941 -0.16537,6.78408 -0.38775,2.26389 -0.8001,4.90946 -3.12177,7.42849 -1.48316,1.60923 -2.82539,2.04996 -4.03955,2.36937 -1.19567,0.31455 -2.79408,0.54498 -5.22603,-0.0775 -1.87824,-0.48077 -8.833244,-2.65898 -7.30653,-14.69316 0.22293,-1.75729 5.58427,4.14515 5.5888,2.18126 0.0116,-5.02701 -4.72668,-9.55573 -7.509616,-14.30765 -0.999488,-1.70665 -3.386986,-7.98785 -3.287138,-5.41001 0.348705,9.00278 1.050483,17.30188 2.702161,26.38599 0.306744,1.68707 1.195817,3.19533 1.99316,4.76715 0.710673,1.40097 1.781193,3.01962 3.547583,4.36408 1.54783,1.1781 2.90734,1.61887 4.40077,1.91771 1.80626,0.36144 3.66494,0.18503 5.44256,-0.0501 2.7702,-0.36646 4.80723,-1.89981 6.57376,-3.67316 1.77008,-1.77691 3.18102,-3.90457 3.73465,-6.50813 0.26333,-1.23835 0.52992,-2.51876 0.62934,-3.84377 0.12885,-1.71722 0.0469,-3.50937 0.0378,-5.38202 -0.0194,-3.98494 -1.11842,-8.97418 -3.45974,-14.59859 l -8.66562,-20.816305 c -0.50687,-1.217614 -1.32964,-2.701657 -1.02733,-3.923274 0.36807,-1.487325 2.62414,-1.157877 3.76773,-2.956926 0.72162,-1.135222 -0.21141,-2.638332 -0.81492,-4.359167 -0.39886,-1.137303 -1.29481,-1.995884 -2.39882,-2.666504 -0.5351,-0.325035 -1.15792,-0.490003 -1.84124,-0.50953 z m -0.40514,3.204973 c 1.06052,-1.08e-4 3.02979,0.889098 3.02978,1.900919 10e-6,1.011822 -0.85978,1.832038 -1.9203,1.83193 -1.06032,-1.66e-4 -3.02927,-0.889292 -3.02926,-1.90092 -1e-5,-1.011628 0.85946,-1.831763 1.91978,-1.831929 z" /></g></svg>
